<mxfile modified="2023-06-20T18:46:41.540Z" host="app.diagrams.net" agent="Mozilla/5.0 (X11; Ubuntu; Linux x86_64; rv:109.0) Gecko/20100101 Firefox/114.0" etag="y0Q9egp7gp34scXdPUOc" version="21.5.0" type="github">
  <diagram id="Ht1M8jgEwFfnCIfOTk4-" name="Page-1">
    <mxGraphModel dx="1434" dy="753" grid="1" gridSize="10" guides="1" tooltips="1" connect="1" arrows="1" fold="1" page="1" pageScale="1" pageWidth="1169" pageHeight="827" math="0" shadow="0">
      <root>
        <mxCell id="0" />
        <mxCell id="1" parent="0" />
        <mxCell id="tXI59RfN99fVcaB6Iad8-25" value="&lt;div&gt;&lt;b&gt;&lt;font style=&quot;font-size: 24px;&quot;&gt;CI/CD&lt;/font&gt;&lt;/b&gt;&lt;/div&gt;&lt;div&gt;&lt;b&gt;&lt;font style=&quot;font-size: 24px;&quot;&gt;(planned)&lt;br&gt;&lt;/font&gt;&lt;/b&gt;&lt;/div&gt;" style="rounded=0;whiteSpace=wrap;html=1;movableLabel=1;" vertex="1" parent="1">
          <mxGeometry x="520" y="450" width="580" height="290" as="geometry">
            <mxPoint x="-11" y="67" as="offset" />
          </mxGeometry>
        </mxCell>
        <mxCell id="UEzPUAAOIrF-is8g5C7q-128" style="edgeStyle=orthogonalEdgeStyle;rounded=0;orthogonalLoop=1;jettySize=auto;html=1;startArrow=open;startFill=0;endArrow=open;endFill=0;strokeWidth=2;strokeColor=#808080;" parent="1" source="UEzPUAAOIrF-is8g5C7q-109" target="tXI59RfN99fVcaB6Iad8-1" edge="1">
          <mxGeometry relative="1" as="geometry">
            <Array as="points" />
            <mxPoint x="310" y="380" as="targetPoint" />
          </mxGeometry>
        </mxCell>
        <mxCell id="UEzPUAAOIrF-is8g5C7q-109" value="Users" style="outlineConnect=0;gradientColor=none;fontColor=#545B64;strokeColor=none;fillColor=#879196;dashed=0;verticalLabelPosition=bottom;verticalAlign=top;align=center;html=1;fontSize=12;fontStyle=0;aspect=fixed;shape=mxgraph.aws4.illustration_desktop;pointerEvents=1;labelBackgroundColor=#ffffff;" parent="1" vertex="1">
          <mxGeometry x="60" y="331" width="100" height="91" as="geometry" />
        </mxCell>
        <mxCell id="tXI59RfN99fVcaB6Iad8-3" value="&lt;b&gt;&lt;font style=&quot;font-size: 16px;&quot;&gt;https://myrepinfo.org&lt;/font&gt;&lt;/b&gt;" style="rounded=0;orthogonalLoop=1;jettySize=auto;html=1;edgeStyle=orthogonalEdgeStyle;startArrow=classic;startFill=1;" edge="1" parent="1" source="tXI59RfN99fVcaB6Iad8-1" target="tXI59RfN99fVcaB6Iad8-2">
          <mxGeometry relative="1" as="geometry" />
        </mxCell>
        <mxCell id="tXI59RfN99fVcaB6Iad8-1" value="Amazon Route 53" style="sketch=0;outlineConnect=0;fontColor=#232F3E;gradientColor=none;strokeColor=#ffffff;fillColor=#232F3E;dashed=0;verticalLabelPosition=middle;verticalAlign=bottom;align=center;html=1;whiteSpace=wrap;fontSize=10;fontStyle=1;spacing=3;shape=mxgraph.aws4.productIcon;prIcon=mxgraph.aws4.route_53;" vertex="1" parent="1">
          <mxGeometry x="280" y="321.5" width="80" height="110" as="geometry" />
        </mxCell>
        <mxCell id="tXI59RfN99fVcaB6Iad8-6" style="edgeStyle=orthogonalEdgeStyle;rounded=0;orthogonalLoop=1;jettySize=auto;html=1;startArrow=classic;startFill=1;" edge="1" parent="1" source="tXI59RfN99fVcaB6Iad8-2" target="tXI59RfN99fVcaB6Iad8-4">
          <mxGeometry relative="1" as="geometry" />
        </mxCell>
        <mxCell id="tXI59RfN99fVcaB6Iad8-2" value="&lt;font color=&quot;#ffffff&quot;&gt;&lt;br&gt;&lt;/font&gt;" style="sketch=0;points=[[0,0,0],[0.25,0,0],[0.5,0,0],[0.75,0,0],[1,0,0],[0,1,0],[0.25,1,0],[0.5,1,0],[0.75,1,0],[1,1,0],[0,0.25,0],[0,0.5,0],[0,0.75,0],[1,0.25,0],[1,0.5,0],[1,0.75,0]];outlineConnect=0;fontColor=#232F3E;gradientColor=#945DF2;gradientDirection=north;fillColor=#5A30B5;strokeColor=#ffffff;dashed=0;verticalLabelPosition=bottom;verticalAlign=top;align=center;html=1;fontSize=12;fontStyle=0;aspect=fixed;shape=mxgraph.aws4.resourceIcon;resIcon=mxgraph.aws4.cloudfront;" vertex="1" parent="1">
          <mxGeometry x="560" y="337.5" width="78" height="78" as="geometry" />
        </mxCell>
        <mxCell id="tXI59RfN99fVcaB6Iad8-8" style="edgeStyle=orthogonalEdgeStyle;rounded=0;orthogonalLoop=1;jettySize=auto;html=1;" edge="1" parent="1" source="tXI59RfN99fVcaB6Iad8-4" target="tXI59RfN99fVcaB6Iad8-5">
          <mxGeometry relative="1" as="geometry">
            <Array as="points">
              <mxPoint x="830" y="265" />
            </Array>
          </mxGeometry>
        </mxCell>
        <mxCell id="tXI59RfN99fVcaB6Iad8-4" value="&lt;font style=&quot;font-size: 16px;&quot; color=&quot;#ffffff&quot;&gt;Production build&lt;/font&gt;&lt;font size=&quot;1&quot; color=&quot;#ffffff&quot;&gt;&lt;b&gt;&lt;br&gt;&lt;/b&gt;&lt;/font&gt;" style="sketch=0;outlineConnect=0;fontColor=#232F3E;gradientColor=none;fillColor=#3F8624;strokeColor=none;dashed=0;verticalLabelPosition=bottom;verticalAlign=top;align=center;html=1;fontSize=12;fontStyle=0;aspect=fixed;pointerEvents=1;shape=mxgraph.aws4.bucket;" vertex="1" parent="1">
          <mxGeometry x="800" y="337.5" width="75" height="78" as="geometry" />
        </mxCell>
        <mxCell id="tXI59RfN99fVcaB6Iad8-9" style="edgeStyle=orthogonalEdgeStyle;rounded=0;orthogonalLoop=1;jettySize=auto;html=1;" edge="1" parent="1" source="tXI59RfN99fVcaB6Iad8-5" target="tXI59RfN99fVcaB6Iad8-2">
          <mxGeometry relative="1" as="geometry" />
        </mxCell>
        <mxCell id="tXI59RfN99fVcaB6Iad8-5" value="&lt;font style=&quot;font-size: 16px;&quot; color=&quot;#ffffff&quot;&gt;&amp;nbsp;Allow s3:GetObject&lt;br style=&quot;font-size: 16px;&quot;&gt;&lt;/font&gt;" style="sketch=0;outlineConnect=0;fontColor=#232F3E;gradientColor=none;fillColor=#3F8624;strokeColor=none;dashed=0;verticalLabelPosition=bottom;verticalAlign=top;align=center;html=1;fontSize=16;fontStyle=1;aspect=fixed;pointerEvents=1;shape=mxgraph.aws4.policy;" vertex="1" parent="1">
          <mxGeometry x="680" y="231.5" width="78" height="67" as="geometry" />
        </mxCell>
        <mxCell id="tXI59RfN99fVcaB6Iad8-23" style="edgeStyle=orthogonalEdgeStyle;rounded=0;orthogonalLoop=1;jettySize=auto;html=1;dashed=1;" edge="1" parent="1" source="tXI59RfN99fVcaB6Iad8-10" target="tXI59RfN99fVcaB6Iad8-12">
          <mxGeometry relative="1" as="geometry" />
        </mxCell>
        <mxCell id="tXI59RfN99fVcaB6Iad8-10" value="Code" style="shape=image;html=1;verticalAlign=top;verticalLabelPosition=bottom;labelBackgroundColor=#000000;imageAspect=0;aspect=fixed;image=https://cdn4.iconfinder.com/data/icons/miu-black-social-2/60/github-128.png;fontSize=16;fontStyle=1" vertex="1" parent="1">
          <mxGeometry x="962.5" y="239.5" width="91.5" height="91.5" as="geometry" />
        </mxCell>
        <mxCell id="tXI59RfN99fVcaB6Iad8-24" style="edgeStyle=orthogonalEdgeStyle;rounded=0;orthogonalLoop=1;jettySize=auto;html=1;dashed=1;" edge="1" parent="1" source="tXI59RfN99fVcaB6Iad8-12" target="tXI59RfN99fVcaB6Iad8-15">
          <mxGeometry relative="1" as="geometry">
            <Array as="points">
              <mxPoint x="1008" y="519" />
            </Array>
          </mxGeometry>
        </mxCell>
        <mxCell id="tXI59RfN99fVcaB6Iad8-12" value="" style="outlineConnect=0;dashed=0;verticalLabelPosition=bottom;verticalAlign=top;align=center;html=1;shape=mxgraph.aws3.codebuild;fillColor=#759C3E;gradientColor=none;fillStyle=auto;opacity=40;" vertex="1" parent="1">
          <mxGeometry x="970" y="480" width="76.5" height="93" as="geometry" />
        </mxCell>
        <mxCell id="tXI59RfN99fVcaB6Iad8-18" style="edgeStyle=orthogonalEdgeStyle;rounded=0;orthogonalLoop=1;jettySize=auto;html=1;startArrow=classic;startFill=1;" edge="1" parent="1" source="tXI59RfN99fVcaB6Iad8-15" target="tXI59RfN99fVcaB6Iad8-26">
          <mxGeometry relative="1" as="geometry">
            <mxPoint x="638" y="519" as="targetPoint" />
          </mxGeometry>
        </mxCell>
        <mxCell id="tXI59RfN99fVcaB6Iad8-15" value="&lt;b style=&quot;font-size: 16px;&quot;&gt;&lt;font style=&quot;font-size: 16px;&quot; color=&quot;#ffffff&quot;&gt;Staging build&lt;br&gt;&lt;/font&gt;&lt;/b&gt;" style="sketch=0;outlineConnect=0;fontColor=#232F3E;gradientColor=none;fillColor=#3F8624;strokeColor=none;dashed=0;verticalLabelPosition=bottom;verticalAlign=top;align=center;html=1;fontSize=12;fontStyle=0;aspect=fixed;pointerEvents=1;shape=mxgraph.aws4.bucket;opacity=40;" vertex="1" parent="1">
          <mxGeometry x="800" y="480" width="75" height="78" as="geometry" />
        </mxCell>
        <mxCell id="tXI59RfN99fVcaB6Iad8-26" value="&lt;font style=&quot;font-size: 16px;&quot; color=&quot;#ffffff&quot;&gt;IAM Role&lt;br&gt;&lt;/font&gt;" style="sketch=0;outlineConnect=0;fontColor=#232F3E;gradientColor=none;fillColor=#BF0816;strokeColor=none;dashed=0;verticalLabelPosition=bottom;verticalAlign=top;align=center;html=1;fontSize=12;fontStyle=0;aspect=fixed;pointerEvents=1;shape=mxgraph.aws4.role;" vertex="1" parent="1">
          <mxGeometry x="620" y="492.5" width="93.95" height="53" as="geometry" />
        </mxCell>
      </root>
    </mxGraphModel>
  </diagram>
</mxfile>
